<svg xmlns="http://www.w3.org/2000/svg" xmlns:xlink="http://www.w3.org/1999/xlink" width="500" zoomAndPan="magnify" viewBox="0 0 375 374.999991" height="500" preserveAspectRatio="xMidYMid meet" version="1.0"><defs><g/><clipPath id="a5d1ebc000"><path d="M 127.308594 142.855469 L 170 142.855469 L 170 187.855469 L 127.308594 187.855469 Z M 127.308594 142.855469 " clip-rule="nonzero"/></clipPath><clipPath id="bc46ac17a8"><path d="M 170.253906 142.855469 L 203.253906 142.855469 L 203.253906 181 L 170.253906 181 Z M 170.253906 142.855469 " clip-rule="nonzero"/></clipPath><clipPath id="7cc4607b8c"><path d="M 203.152344 143 L 246.652344 143 L 246.652344 183 L 203.152344 183 Z M 203.152344 143 " clip-rule="nonzero"/></clipPath></defs><g clip-path="url(#a5d1ebc000)"><path fill="#88b72e" d="M 159.636719 184.859375 C 159.144531 184.933594 158.660156 185.019531 158.167969 185.078125 C 156.292969 185.3125 154.464844 185.0625 152.675781 184.515625 C 149.734375 183.621094 147.480469 181.765625 145.707031 179.332031 C 143.453125 176.234375 142.109375 172.757812 141.617188 168.953125 C 141.421875 167.464844 141.347656 165.964844 141.25 164.46875 C 141.085938 161.929688 140.484375 159.515625 139.417969 157.207031 C 138.921875 156.136719 138.441406 155.050781 138.285156 153.871094 C 138.113281 152.554688 138.316406 151.320312 139.222656 150.273438 C 139.515625 149.941406 139.878906 149.71875 140.269531 149.53125 C 140.457031 149.441406 140.648438 149.460938 140.75 149.667969 C 140.84375 149.855469 140.761719 150.007812 140.589844 150.117188 C 140.460938 150.199219 140.324219 150.273438 140.199219 150.363281 C 138.894531 151.335938 138.75 152.679688 139.03125 154.136719 C 139.25 155.269531 139.75 156.308594 140.222656 157.347656 C 141.230469 159.566406 141.742188 161.894531 141.921875 164.3125 C 142.054688 166.160156 142.09375 168.019531 142.441406 169.84375 C 143.226562 173.957031 144.839844 177.675781 147.796875 180.71875 C 149.894531 182.875 152.464844 184.085938 155.453125 184.402344 C 159.144531 184.792969 162.324219 183.585938 165.097656 181.214844 C 167.460938 179.191406 168.796875 176.582031 169.078125 173.503906 C 169.6875 166.8125 166.972656 161.78125 161.261719 158.320312 C 159.769531 157.417969 158.199219 156.652344 156.722656 155.726562 C 154.566406 154.375 152.761719 152.632812 151.113281 150.710938 C 150.332031 149.796875 149.523438 148.902344 148.488281 148.25 C 148.050781 147.972656 147.59375 147.730469 147.089844 147.589844 C 145.683594 147.203125 144.070312 147.761719 143.160156 148.945312 C 142.894531 149.289062 142.671875 149.652344 142.5 150.050781 C 142.46875 150.121094 142.433594 150.191406 142.394531 150.253906 C 142.285156 150.429688 142.125 150.496094 141.941406 150.410156 C 141.75 150.320312 141.71875 150.148438 141.792969 149.960938 C 141.925781 149.632812 142.082031 149.316406 142.273438 149.019531 C 142.320312 148.945312 142.410156 148.878906 142.308594 148.761719 C 141.792969 148.195312 141.515625 147.492188 141.265625 146.789062 C 141.164062 146.507812 141.007812 146.390625 140.742188 146.316406 C 139.792969 146.039062 138.839844 146.089844 137.886719 146.261719 C 135.300781 146.71875 133.160156 147.914062 131.613281 150.078125 C 130.707031 151.351562 130.242188 152.808594 129.910156 154.3125 C 129.535156 155.996094 129.078125 157.648438 128.257812 159.179688 C 128.214844 159.257812 128.117188 159.359375 128.191406 159.449219 C 128.265625 159.535156 128.378906 159.449219 128.472656 159.433594 C 129.332031 159.269531 130.035156 158.792969 130.726562 158.296875 C 132.476562 157.027344 133.820312 155.378906 135.078125 153.652344 C 136.253906 152.042969 137.296875 150.363281 137.941406 148.460938 C 138.105469 147.96875 138.234375 147.46875 138.34375 146.960938 C 138.398438 146.714844 138.476562 146.449219 138.804688 146.53125 C 139.101562 146.605469 139.066406 146.855469 139.015625 147.101562 C 138.695312 148.707031 138.082031 150.203125 137.246094 151.601562 C 135.808594 153.992188 134.179688 156.242188 132.066406 158.097656 C 131.21875 158.839844 130.320312 159.523438 129.25 159.925781 C 128.875 160.070312 128.488281 160.167969 128.089844 160.164062 C 127.546875 160.164062 127.304688 159.828125 127.460938 159.308594 C 127.5 159.183594 127.550781 159.058594 127.613281 158.941406 C 128.460938 157.363281 128.910156 155.652344 129.300781 153.914062 C 129.675781 152.234375 130.265625 150.636719 131.359375 149.269531 C 133.007812 147.214844 135.171875 146.039062 137.746094 145.589844 C 138.777344 145.410156 139.808594 145.363281 140.875 145.632812 C 140.78125 145.082031 140.636719 144.578125 140.605469 144.054688 C 140.59375 143.820312 140.574219 143.589844 140.574219 143.359375 C 140.574219 143.125 140.632812 142.894531 140.925781 142.894531 C 141.222656 142.894531 141.246094 143.121094 141.253906 143.363281 C 141.300781 145.015625 141.777344 146.550781 142.570312 147.992188 C 142.703125 148.226562 142.785156 148.3125 143.035156 148.066406 C 144.355469 146.753906 146.328125 146.429688 148.027344 147.214844 C 149.351562 147.824219 150.363281 148.820312 151.308594 149.898438 C 152.671875 151.449219 154.058594 152.976562 155.734375 154.210938 C 157.175781 155.277344 158.75 156.121094 160.3125 156.988281 C 161.9375 157.886719 163.53125 158.832031 164.875 160.136719 C 167.523438 162.707031 169.242188 165.753906 169.707031 169.460938 C 170.050781 172.179688 169.867188 174.828125 168.769531 177.375 C 167.925781 179.335938 166.578125 180.894531 164.980469 182.28125 C 162.285156 184.621094 159.238281 186.265625 155.707031 186.890625 C 150.460938 187.816406 146.042969 186.316406 142.65625 182.15625 C 141.074219 180.210938 140.261719 177.886719 139.769531 175.445312 C 139.375 173.503906 139.371094 171.546875 139.464844 169.578125 C 139.550781 167.75 139.648438 165.917969 139.5 164.085938 C 139.429688 163.207031 139.289062 162.335938 139.074219 161.480469 C 139.015625 161.242188 138.898438 160.960938 139.234375 160.828125 C 139.476562 160.730469 139.621094 160.878906 139.730469 161.296875 C 140.074219 162.617188 140.214844 163.960938 140.246094 165.320312 C 140.292969 167.289062 140.136719 169.25 140.097656 171.214844 C 140.035156 174.417969 140.644531 177.472656 142.234375 180.277344 C 144.210938 183.757812 147.269531 185.746094 151.183594 186.359375 C 153.664062 186.746094 156.089844 186.308594 158.433594 185.429688 C 158.816406 185.285156 159.191406 185.128906 159.570312 184.976562 C 159.597656 184.964844 159.621094 184.9375 159.644531 184.921875 C 159.640625 184.898438 159.636719 184.878906 159.636719 184.859375 Z M 151.402344 174.808594 C 152.46875 176.085938 153.671875 177.179688 155.277344 177.757812 C 158.488281 178.910156 161.007812 177.453125 162.21875 175.117188 C 163.089844 173.441406 163.097656 171.628906 162.546875 169.863281 C 161.46875 166.410156 159.207031 163.886719 156.074219 162.15625 C 154.460938 161.265625 152.722656 160.761719 150.832031 160.933594 C 149.96875 161.007812 149.425781 161.398438 149.113281 162.1875 C 148.578125 163.523438 148.3125 164.910156 148.316406 166.347656 C 148.320312 169.492188 149.367188 172.375 151.402344 174.808594 Z M 160.613281 176.152344 C 159.066406 177.605469 157.191406 177.867188 155.085938 176.941406 C 153.722656 176.339844 152.699219 175.328125 151.789062 174.195312 C 149.796875 171.71875 148.875 168.882812 149.011719 165.714844 C 149.058594 164.597656 149.324219 163.515625 149.730469 162.472656 C 149.949219 161.914062 150.324219 161.667969 150.925781 161.609375 C 152.398438 161.464844 153.769531 161.816406 155.066406 162.429688 C 158.386719 163.996094 160.6875 166.511719 161.878906 170.003906 C 162.117188 170.695312 162.207031 171.417969 162.195312 172.152344 C 162.1875 173.691406 161.765625 175.066406 160.613281 176.152344 Z M 150.664062 169.039062 C 150.902344 170.039062 151.238281 171.003906 151.820312 171.863281 C 151.960938 172.066406 152.144531 172.195312 152.375 172.03125 C 152.597656 171.875 152.539062 171.667969 152.402344 171.480469 C 152.195312 171.191406 152.023438 170.886719 151.886719 170.558594 C 151.332031 169.246094 151.046875 167.875 150.992188 166.453125 C 150.964844 165.816406 150.976562 165.175781 151.117188 164.546875 C 151.152344 164.386719 151.167969 164.207031 151 164.097656 C 150.878906 164.019531 150.746094 164.023438 150.628906 164.109375 C 150.511719 164.191406 150.480469 164.324219 150.453125 164.453125 C 150.332031 164.996094 150.292969 165.542969 150.308594 166.097656 C 150.292969 167.09375 150.429688 168.074219 150.664062 169.039062 Z M 150.960938 163.011719 C 150.960938 163.210938 151.085938 163.316406 151.277344 163.308594 C 151.46875 163.304688 151.585938 163.191406 151.578125 162.992188 C 151.570312 162.792969 151.449219 162.699219 151.257812 162.683594 C 151.0625 162.707031 150.957031 162.816406 150.960938 163.011719 Z M 150.960938 163.011719 " fill-opacity="1" fill-rule="nonzero"/><path fill="#88b72e" d="M 159.636719 184.859375 C 159.144531 184.933594 158.660156 185.019531 158.167969 185.078125 C 156.292969 185.3125 154.464844 185.0625 152.675781 184.515625 C 149.734375 183.621094 147.480469 181.765625 145.707031 179.332031 C 143.453125 176.234375 142.109375 172.757812 141.617188 168.953125 C 141.421875 167.464844 141.347656 165.964844 141.25 164.46875 C 141.085938 161.929688 140.484375 159.515625 139.417969 157.207031 C 138.921875 156.136719 138.441406 155.050781 138.285156 153.871094 C 138.113281 152.554688 138.316406 151.320312 139.222656 150.273438 C 139.515625 149.941406 139.878906 149.71875 140.269531 149.53125 C 140.457031 149.441406 140.648438 149.460938 140.75 149.667969 C 140.84375 149.855469 140.761719 150.007812 140.589844 150.117188 C 140.460938 150.199219 140.324219 150.273438 140.199219 150.363281 C 138.894531 151.335938 138.75 152.679688 139.03125 154.136719 C 139.25 155.269531 139.75 156.308594 140.222656 157.347656 C 141.230469 159.566406 141.742188 161.894531 141.921875 164.3125 C 142.054688 166.160156 142.09375 168.019531 142.441406 169.84375 C 143.226562 173.957031 144.839844 177.675781 147.796875 180.71875 C 149.894531 182.875 152.464844 184.085938 155.453125 184.402344 C 159.144531 184.792969 162.324219 183.585938 165.097656 181.214844 C 167.460938 179.191406 168.796875 176.582031 169.078125 173.503906 C 169.6875 166.8125 166.972656 161.78125 161.261719 158.320312 C 159.769531 157.417969 158.199219 156.652344 156.722656 155.726562 C 154.566406 154.375 152.761719 152.632812 151.113281 150.710938 C 150.332031 149.796875 149.523438 148.902344 148.488281 148.25 C 148.050781 147.972656 147.59375 147.730469 147.089844 147.589844 C 145.683594 147.203125 144.070312 147.761719 143.160156 148.945312 C 142.894531 149.289062 142.671875 149.652344 142.5 150.050781 C 142.46875 150.121094 142.433594 150.191406 142.394531 150.253906 C 142.285156 150.429688 142.125 150.496094 141.941406 150.410156 C 141.75 150.320312 141.71875 150.148438 141.792969 149.960938 C 141.925781 149.632812 142.082031 149.316406 142.273438 149.019531 C 142.320312 148.945312 142.410156 148.878906 142.308594 148.761719 C 141.792969 148.195312 141.515625 147.492188 141.265625 146.789062 C 141.164062 146.507812 141.007812 146.390625 140.742188 146.316406 C 139.792969 146.039062 138.839844 146.089844 137.886719 146.261719 C 135.300781 146.71875 133.160156 147.914062 131.613281 150.078125 C 130.707031 151.351562 130.242188 152.808594 129.910156 154.3125 C 129.535156 155.996094 129.078125 157.648438 128.257812 159.179688 C 128.214844 159.257812 128.117188 159.359375 128.191406 159.449219 C 128.265625 159.535156 128.378906 159.449219 128.472656 159.433594 C 129.332031 159.269531 130.035156 158.792969 130.726562 158.296875 C 132.476562 157.027344 133.820312 155.378906 135.078125 153.652344 C 136.253906 152.042969 137.296875 150.363281 137.941406 148.460938 C 138.105469 147.96875 138.234375 147.46875 138.34375 146.960938 C 138.398438 146.714844 138.476562 146.449219 138.804688 146.53125 C 139.101562 146.605469 139.066406 146.855469 139.015625 147.101562 C 138.695312 148.707031 138.082031 150.203125 137.246094 151.601562 C 135.808594 153.992188 134.179688 156.242188 132.066406 158.097656 C 131.21875 158.839844 130.320312 159.523438 129.25 159.925781 C 128.875 160.070312 128.488281 160.167969 128.089844 160.164062 C 127.546875 160.164062 127.304688 159.828125 127.460938 159.308594 C 127.5 159.183594 127.550781 159.058594 127.613281 158.941406 C 128.460938 157.363281 128.910156 155.652344 129.300781 153.914062 C 129.675781 152.234375 130.265625 150.636719 131.359375 149.269531 C 133.007812 147.214844 135.171875 146.039062 137.746094 145.589844 C 138.777344 145.410156 139.808594 145.363281 140.875 145.632812 C 140.78125 145.082031 140.636719 144.578125 140.605469 144.054688 C 140.59375 143.820312 140.574219 143.589844 140.574219 143.359375 C 140.574219 143.125 140.632812 142.894531 140.925781 142.894531 C 141.222656 142.894531 141.246094 143.121094 141.253906 143.363281 C 141.300781 145.015625 141.777344 146.550781 142.570312 147.992188 C 142.703125 148.226562 142.785156 148.3125 143.035156 148.066406 C 144.355469 146.753906 146.328125 146.429688 148.027344 147.214844 C 149.351562 147.824219 150.363281 148.820312 151.308594 149.898438 C 152.671875 151.449219 154.058594 152.976562 155.734375 154.210938 C 157.175781 155.277344 158.75 156.121094 160.3125 156.988281 C 161.9375 157.886719 163.53125 158.832031 164.875 160.136719 C 167.523438 162.707031 169.242188 165.753906 169.707031 169.460938 C 170.050781 172.179688 169.867188 174.828125 168.769531 177.375 C 167.925781 179.335938 166.578125 180.894531 164.980469 182.28125 C 162.285156 184.621094 159.238281 186.265625 155.707031 186.890625 C 150.460938 187.816406 146.042969 186.316406 142.65625 182.15625 C 141.074219 180.210938 140.261719 177.886719 139.769531 175.445312 C 139.375 173.503906 139.371094 171.546875 139.464844 169.578125 C 139.550781 167.75 139.648438 165.917969 139.5 164.085938 C 139.429688 163.207031 139.289062 162.335938 139.074219 161.480469 C 139.015625 161.242188 138.898438 160.960938 139.234375 160.828125 C 139.476562 160.730469 139.621094 160.878906 139.730469 161.296875 C 140.074219 162.617188 140.214844 163.960938 140.246094 165.320312 C 140.292969 167.289062 140.136719 169.25 140.097656 171.214844 C 140.035156 174.417969 140.644531 177.472656 142.234375 180.277344 C 144.210938 183.757812 147.269531 185.746094 151.183594 186.359375 C 153.664062 186.746094 156.089844 186.308594 158.433594 185.429688 C 158.816406 185.285156 159.191406 185.128906 159.570312 184.976562 C 159.597656 184.964844 159.621094 184.9375 159.644531 184.921875 C 159.640625 184.898438 159.636719 184.878906 159.636719 184.859375 Z M 151.402344 174.808594 C 152.46875 176.085938 153.671875 177.179688 155.277344 177.757812 C 158.488281 178.910156 161.007812 177.453125 162.21875 175.117188 C 163.089844 173.441406 163.097656 171.628906 162.546875 169.863281 C 161.46875 166.410156 159.207031 163.886719 156.074219 162.15625 C 154.460938 161.265625 152.722656 160.761719 150.832031 160.933594 C 149.96875 161.007812 149.425781 161.398438 149.113281 162.1875 C 148.578125 163.523438 148.3125 164.910156 148.316406 166.347656 C 148.320312 169.492188 149.367188 172.375 151.402344 174.808594 Z M 160.613281 176.152344 C 159.066406 177.605469 157.191406 177.867188 155.085938 176.941406 C 153.722656 176.339844 152.699219 175.328125 151.789062 174.195312 C 149.796875 171.71875 148.875 168.882812 149.011719 165.714844 C 149.058594 164.597656 149.324219 163.515625 149.730469 162.472656 C 149.949219 161.914062 150.324219 161.667969 150.925781 161.609375 C 152.398438 161.464844 153.769531 161.816406 155.066406 162.429688 C 158.386719 163.996094 160.6875 166.511719 161.878906 170.003906 C 162.117188 170.695312 162.207031 171.417969 162.195312 172.152344 C 162.1875 173.691406 161.765625 175.066406 160.613281 176.152344 Z M 150.664062 169.039062 C 150.902344 170.039062 151.238281 171.003906 151.820312 171.863281 C 151.960938 172.066406 152.144531 172.195312 152.375 172.03125 C 152.597656 171.875 152.539062 171.667969 152.402344 171.480469 C 152.195312 171.191406 152.023438 170.886719 151.886719 170.558594 C 151.332031 169.246094 151.046875 167.875 150.992188 166.453125 C 150.964844 165.816406 150.976562 165.175781 151.117188 164.546875 C 151.152344 164.386719 151.167969 164.207031 151 164.097656 C 150.878906 164.019531 150.746094 164.023438 150.628906 164.109375 C 150.511719 164.191406 150.480469 164.324219 150.453125 164.453125 C 150.332031 164.996094 150.292969 165.542969 150.308594 166.097656 C 150.292969 167.09375 150.429688 168.074219 150.664062 169.039062 Z M 150.960938 163.011719 C 150.960938 163.210938 151.085938 163.316406 151.277344 163.308594 C 151.46875 163.304688 151.585938 163.191406 151.578125 162.992188 C 151.570312 162.792969 151.449219 162.699219 151.257812 162.683594 C 151.0625 162.707031 150.957031 162.816406 150.960938 163.011719 Z M 150.960938 163.011719 " fill-opacity="1" fill-rule="nonzero"/></g><g clip-path="url(#bc46ac17a8)"><path fill="#e86864" d="M 170.277344 158.257812 C 170.273438 155.296875 171.488281 152.988281 173.753906 151.191406 C 173.953125 151.035156 174.15625 150.878906 174.375 150.746094 C 174.578125 150.625 174.8125 150.574219 174.957031 150.824219 C 175.09375 151.0625 174.925781 151.207031 174.734375 151.335938 C 172.929688 152.558594 171.664062 154.167969 171.171875 156.304688 C 170.800781 157.929688 170.960938 159.542969 171.378906 161.140625 C 172.113281 163.949219 173.457031 166.472656 175.085938 168.855469 C 177.355469 172.175781 180.019531 175.164062 183.039062 177.839844 C 183.796875 178.507812 184.617188 179.089844 185.539062 179.53125 C 187.210938 180.328125 188.835938 180.230469 190.425781 179.320312 C 191.9375 178.453125 193.132812 177.230469 194.210938 175.90625 C 197.578125 171.753906 200.082031 167.148438 201.542969 162.015625 C 202.0625 160.1875 202.429688 158.324219 202.316406 156.410156 C 202.234375 155.011719 201.816406 153.714844 201.023438 152.539062 C 200.484375 151.738281 199.722656 151.1875 198.90625 150.699219 C 198.679688 150.558594 198.371094 150.417969 198.554688 150.101562 C 198.746094 149.777344 199.023438 149.980469 199.253906 150.109375 C 201.453125 151.316406 202.566406 153.238281 202.929688 155.632812 C 203.234375 157.65625 202.886719 159.640625 202.367188 161.582031 C 200.789062 167.5 197.925781 172.761719 193.835938 177.359375 C 193.039062 178.257812 192.144531 179.054688 191.125 179.703125 C 188.996094 181.054688 186.847656 181.097656 184.660156 179.851562 C 183.410156 179.140625 182.347656 178.203125 181.328125 177.214844 C 178.722656 174.695312 176.339844 171.988281 174.332031 168.976562 C 172.738281 166.585938 171.421875 164.058594 170.695312 161.265625 C 170.433594 160.257812 170.292969 159.234375 170.277344 158.257812 Z M 196.304688 152.054688 C 194.601562 152.332031 192.902344 152.289062 191.222656 151.910156 C 189.855469 151.601562 188.480469 151.308594 187.25 150.59375 C 187.023438 150.457031 186.84375 150.550781 186.660156 150.722656 C 184.34375 152.90625 181.625 154.039062 178.390625 153.777344 C 177.671875 153.71875 176.972656 153.542969 176.347656 153.164062 C 176.367188 153.078125 176.429688 153.070312 176.476562 153.050781 C 177.566406 152.566406 178.617188 152.003906 179.585938 151.320312 C 181.101562 150.257812 182.761719 149.757812 184.617188 149.894531 C 184.859375 149.914062 185.09375 149.882812 185.105469 149.585938 C 185.113281 149.296875 184.886719 149.234375 184.644531 149.21875 C 182.871094 149.105469 181.210938 149.449219 179.710938 150.433594 C 178.820312 151.019531 177.921875 151.585938 176.960938 152.058594 C 176.554688 152.257812 176.132812 152.433594 175.726562 152.636719 C 175.324219 152.84375 175.28125 153.1875 175.617188 153.484375 C 175.773438 153.625 175.957031 153.738281 176.140625 153.839844 C 177.011719 154.304688 177.96875 154.484375 178.941406 154.507812 C 181.886719 154.578125 184.425781 153.53125 186.660156 151.691406 C 187.09375 151.332031 187.070312 151.335938 187.59375 151.542969 C 190.121094 152.53125 192.722656 153.09375 195.457031 152.855469 C 196.226562 152.789062 196.980469 152.640625 197.726562 152.460938 C 197.914062 152.414062 198.0625 152.320312 198.078125 152.113281 C 198.089844 151.941406 198.007812 151.804688 197.84375 151.75 C 197.175781 151.542969 196.664062 151.09375 196.132812 150.679688 C 194.886719 149.703125 193.503906 149.03125 191.894531 148.894531 C 190.910156 148.8125 190.003906 149.09375 189.105469 149.449219 C 188.328125 149.753906 187.703125 149.5 187.304688 148.777344 C 187.023438 148.265625 186.878906 147.707031 186.875 147.132812 C 186.871094 145.769531 187.320312 144.585938 188.367188 143.65625 C 188.558594 143.488281 188.742188 143.3125 188.554688 143.042969 C 188.421875 142.851562 188.1875 142.902344 187.894531 143.152344 C 187.40625 143.570312 187.019531 144.066406 186.75 144.640625 C 186.066406 146.078125 185.945312 147.535156 186.644531 149.007812 C 186.9375 149.613281 187.398438 150.042969 188.070312 150.207031 C 188.65625 150.351562 189.199219 150.179688 189.726562 149.953125 C 190.960938 149.421875 192.191406 149.480469 193.433594 149.925781 C 194.65625 150.363281 195.640625 151.144531 196.667969 151.976562 C 196.515625 152.011719 196.410156 152.039062 196.304688 152.054688 Z M 180.386719 148.292969 C 181.226562 148.125 182.066406 147.925781 182.929688 147.972656 C 184.179688 148.039062 185.183594 148.542969 185.8125 149.652344 C 185.867188 149.75 185.925781 149.84375 186 149.925781 C 186.097656 150.035156 186.234375 150.054688 186.367188 150 C 186.503906 149.941406 186.558594 149.824219 186.554688 149.675781 C 186.554688 149.550781 186.488281 149.445312 186.429688 149.339844 C 185.710938 148.035156 184.554688 147.414062 183.09375 147.300781 C 182.171875 147.226562 181.273438 147.410156 180.378906 147.59375 C 179.105469 147.855469 177.828125 148.019531 176.535156 147.761719 C 176.0625 147.671875 175.605469 147.53125 175.148438 147.390625 C 174.703125 147.257812 174.480469 147.453125 174.527344 147.90625 C 174.539062 148.003906 174.5625 148.101562 174.589844 148.195312 C 174.9375 149.414062 175.699219 150.308594 176.800781 150.933594 C 176.886719 150.980469 176.980469 151.027344 177.078125 151.046875 C 177.25 151.089844 177.390625 151.027344 177.46875 150.871094 C 177.539062 150.726562 177.496094 150.582031 177.375 150.480469 C 177.269531 150.398438 177.148438 150.34375 177.035156 150.273438 C 176.222656 149.792969 175.640625 149.128906 175.316406 148.195312 C 177.859375 148.664062 178.425781 148.675781 180.386719 148.292969 Z M 196.203125 149.453125 C 196.019531 149.601562 195.917969 149.792969 196.09375 149.992188 C 196.269531 150.195312 196.472656 150.109375 196.652344 149.96875 C 197.347656 149.425781 197.890625 148.765625 198.269531 147.972656 C 198.335938 147.835938 198.398438 147.691406 198.433594 147.542969 C 198.519531 147.144531 198.261719 146.898438 197.855469 146.992188 C 197.75 147.015625 197.644531 147.054688 197.539062 147.089844 C 196.863281 147.324219 196.171875 147.351562 195.464844 147.253906 C 194.539062 147.125 193.621094 146.929688 192.6875 146.867188 C 191.078125 146.757812 189.585938 147.074219 188.285156 148.070312 C 188.09375 148.21875 187.957031 148.40625 188.144531 148.632812 C 188.320312 148.84375 188.523438 148.753906 188.707031 148.613281 C 189.007812 148.382812 189.328125 148.1875 189.671875 148.03125 C 190.980469 147.425781 192.347656 147.457031 193.730469 147.671875 C 194.980469 147.863281 196.226562 148.199219 197.5625 147.800781 C 197.230469 148.511719 196.742188 149.003906 196.203125 149.453125 Z M 173.03125 160.574219 C 173.589844 163.058594 174.722656 165.289062 176.144531 167.386719 C 176.289062 167.605469 176.433594 167.875 176.773438 167.714844 C 176.988281 167.609375 176.960938 167.355469 176.714844 166.996094 C 175.699219 165.515625 174.839844 163.953125 174.246094 162.257812 C 173.671875 160.617188 173.210938 158.953125 173.683594 157.1875 C 173.734375 156.996094 173.699219 156.800781 173.457031 156.746094 C 173.207031 156.6875 173.078125 156.839844 173.015625 157.046875 C 172.859375 157.554688 172.800781 158.082031 172.800781 158.679688 C 172.808594 159.273438 172.886719 159.929688 173.03125 160.574219 Z M 190.480469 167.664062 C 190.554688 168.339844 191.019531 168.804688 191.632812 168.824219 C 192.226562 168.839844 192.726562 168.421875 192.824219 167.746094 C 192.972656 166.738281 192.574219 165.867188 192.003906 165.066406 C 191.828125 164.820312 191.449219 164.839844 191.285156 165.09375 C 190.824219 165.792969 190.492188 166.546875 190.464844 167.332031 C 190.472656 167.488281 190.472656 167.578125 190.480469 167.664062 Z M 192.148438 167.59375 C 192.105469 167.941406 191.878906 168.15625 191.632812 168.140625 C 191.375 168.121094 191.191406 167.898438 191.171875 167.542969 C 191.132812 166.929688 191.347656 166.382812 191.675781 165.800781 C 191.972656 166.398438 192.230469 166.953125 192.148438 167.59375 Z M 186.246094 158.746094 C 186.4375 159.183594 186.75 159.460938 187.253906 159.496094 C 187.765625 159.527344 188.101562 159.285156 188.332031 158.859375 C 188.46875 158.601562 188.550781 158.324219 188.527344 158.035156 C 188.464844 157.199219 188.167969 156.445312 187.664062 155.777344 C 187.457031 155.5 187.074219 155.496094 186.898438 155.777344 C 186.464844 156.476562 186.136719 157.222656 186.125 158.066406 C 186.125 158.300781 186.148438 158.53125 186.246094 158.746094 Z M 187.832031 158.136719 C 187.832031 158.210938 187.816406 158.292969 187.789062 158.359375 C 187.695312 158.585938 187.605469 158.835938 187.292969 158.808594 C 186.980469 158.78125 186.875 158.550781 186.839844 158.28125 C 186.765625 157.644531 186.980469 157.078125 187.300781 156.488281 C 187.617188 157.027344 187.816406 157.554688 187.832031 158.136719 Z M 195.210938 161.730469 C 195.566406 162.382812 196.421875 162.5625 196.945312 162.082031 C 197.261719 161.789062 197.429688 161.414062 197.425781 160.992188 C 197.414062 160.101562 197.085938 159.3125 196.554688 158.605469 C 196.351562 158.335938 195.964844 158.351562 195.789062 158.636719 C 195.363281 159.34375 195.03125 160.085938 195.027344 160.929688 C 195.027344 161.210938 195.074219 161.480469 195.210938 161.730469 Z M 196.738281 160.925781 C 196.742188 160.980469 196.730469 161.035156 196.722656 161.089844 C 196.65625 161.4375 196.457031 161.660156 196.21875 161.65625 C 195.941406 161.652344 195.769531 161.433594 195.734375 161.050781 C 195.6875 160.546875 195.855469 159.925781 196.214844 159.347656 C 196.515625 159.859375 196.695312 160.371094 196.738281 160.925781 Z M 183.117188 165.109375 C 182.882812 164.796875 182.496094 164.835938 182.292969 165.183594 C 182.023438 165.640625 181.792969 166.117188 181.667969 166.636719 C 181.566406 167.070312 181.519531 167.507812 181.644531 167.945312 C 181.789062 168.429688 182.175781 168.773438 182.628906 168.816406 C 183.175781 168.867188 183.554688 168.648438 183.804688 168.132812 C 183.917969 167.902344 183.980469 167.65625 183.984375 167.398438 C 183.90625 166.554688 183.628906 165.785156 183.117188 165.109375 Z M 183.269531 167.519531 C 183.265625 167.636719 183.214844 167.753906 183.160156 167.863281 C 183.078125 168.023438 182.960938 168.15625 182.75 168.140625 C 182.519531 168.121094 182.390625 167.980469 182.324219 167.777344 C 182.230469 167.464844 182.261719 167.144531 182.335938 166.832031 C 182.414062 166.492188 182.542969 166.164062 182.757812 165.824219 C 183.066406 166.371094 183.292969 166.910156 183.269531 167.519531 Z M 177.816406 161.726562 C 178.003906 162.152344 178.308594 162.425781 178.792969 162.46875 C 179.300781 162.515625 179.648438 162.285156 179.882812 161.859375 C 180.03125 161.59375 180.117188 161.308594 180.09375 161.003906 C 180.023438 160.171875 179.730469 159.417969 179.226562 158.75 C 179.015625 158.472656 178.632812 158.476562 178.460938 158.757812 C 178.027344 159.460938 177.699219 160.207031 177.691406 161.050781 C 177.695312 161.28125 177.71875 161.511719 177.816406 161.726562 Z M 179.398438 161.03125 C 179.425781 161.425781 179.179688 161.777344 178.914062 161.789062 C 178.605469 161.804688 178.410156 161.546875 178.394531 161.078125 C 178.375 160.511719 178.570312 160.003906 178.871094 159.460938 C 179.171875 159.988281 179.363281 160.484375 179.398438 161.03125 Z M 186.25 174.757812 C 186.4375 175.179688 186.738281 175.460938 187.226562 175.503906 C 187.734375 175.546875 188.082031 175.320312 188.316406 174.894531 C 188.464844 174.628906 188.550781 174.34375 188.527344 174.039062 C 188.460938 173.207031 188.164062 172.453125 187.660156 171.785156 C 187.449219 171.507812 187.070312 171.507812 186.894531 171.789062 C 186.460938 172.492188 186.136719 173.234375 186.125 174.078125 C 186.128906 174.3125 186.152344 174.542969 186.25 174.757812 Z M 187.828125 174.171875 C 187.828125 174.265625 187.792969 174.367188 187.753906 174.457031 C 187.664062 174.664062 187.546875 174.859375 187.269531 174.816406 C 187.011719 174.777344 186.894531 174.59375 186.855469 174.363281 C 186.75 173.699219 186.964844 173.109375 187.300781 172.5 C 187.617188 173.042969 187.828125 173.574219 187.828125 174.171875 Z M 173.8125 155.195312 C 173.804688 155.390625 173.917969 155.507812 174.113281 155.515625 C 174.3125 155.527344 174.429688 155.417969 174.4375 155.21875 C 174.445312 155.023438 174.339844 154.914062 174.132812 154.898438 C 173.945312 154.90625 173.816406 154.996094 173.8125 155.195312 Z M 173.8125 155.195312 " fill-opacity="1" fill-rule="nonzero"/><path fill="#e86864" d="M 170.277344 158.257812 C 170.273438 155.296875 171.488281 152.988281 173.753906 151.191406 C 173.953125 151.035156 174.15625 150.878906 174.375 150.746094 C 174.578125 150.625 174.8125 150.574219 174.957031 150.824219 C 175.09375 151.0625 174.925781 151.207031 174.734375 151.335938 C 172.929688 152.558594 171.664062 154.167969 171.171875 156.304688 C 170.800781 157.929688 170.960938 159.542969 171.378906 161.140625 C 172.113281 163.949219 173.457031 166.472656 175.085938 168.855469 C 177.355469 172.175781 180.019531 175.164062 183.039062 177.839844 C 183.796875 178.507812 184.617188 179.089844 185.539062 179.53125 C 187.210938 180.328125 188.835938 180.230469 190.425781 179.320312 C 191.9375 178.453125 193.132812 177.230469 194.210938 175.90625 C 197.578125 171.753906 200.082031 167.148438 201.542969 162.015625 C 202.0625 160.1875 202.429688 158.324219 202.316406 156.410156 C 202.234375 155.011719 201.816406 153.714844 201.023438 152.539062 C 200.484375 151.738281 199.722656 151.1875 198.90625 150.699219 C 198.679688 150.558594 198.371094 150.417969 198.554688 150.101562 C 198.746094 149.777344 199.023438 149.980469 199.253906 150.109375 C 201.453125 151.316406 202.566406 153.238281 202.929688 155.632812 C 203.234375 157.65625 202.886719 159.640625 202.367188 161.582031 C 200.789062 167.5 197.925781 172.761719 193.835938 177.359375 C 193.039062 178.257812 192.144531 179.054688 191.125 179.703125 C 188.996094 181.054688 186.847656 181.097656 184.660156 179.851562 C 183.410156 179.140625 182.347656 178.203125 181.328125 177.214844 C 178.722656 174.695312 176.339844 171.988281 174.332031 168.976562 C 172.738281 166.585938 171.421875 164.058594 170.695312 161.265625 C 170.433594 160.257812 170.292969 159.234375 170.277344 158.257812 Z M 196.304688 152.054688 C 194.601562 152.332031 192.902344 152.289062 191.222656 151.910156 C 189.855469 151.601562 188.480469 151.308594 187.25 150.59375 C 187.023438 150.457031 186.84375 150.550781 186.660156 150.722656 C 184.34375 152.90625 181.625 154.039062 178.390625 153.777344 C 177.671875 153.71875 176.972656 153.542969 176.347656 153.164062 C 176.367188 153.078125 176.429688 153.070312 176.476562 153.050781 C 177.566406 152.566406 178.617188 152.003906 179.585938 151.320312 C 181.101562 150.257812 182.761719 149.757812 184.617188 149.894531 C 184.859375 149.914062 185.09375 149.882812 185.105469 149.585938 C 185.113281 149.296875 184.886719 149.234375 184.644531 149.21875 C 182.871094 149.105469 181.210938 149.449219 179.710938 150.433594 C 178.820312 151.019531 177.921875 151.585938 176.960938 152.058594 C 176.554688 152.257812 176.132812 152.433594 175.726562 152.636719 C 175.324219 152.84375 175.28125 153.1875 175.617188 153.484375 C 175.773438 153.625 175.957031 153.738281 176.140625 153.839844 C 177.011719 154.304688 177.96875 154.484375 178.941406 154.507812 C 181.886719 154.578125 184.425781 153.53125 186.660156 151.691406 C 187.09375 151.332031 187.070312 151.335938 187.59375 151.542969 C 190.121094 152.53125 192.722656 153.09375 195.457031 152.855469 C 196.226562 152.789062 196.980469 152.640625 197.726562 152.460938 C 197.914062 152.414062 198.0625 152.320312 198.078125 152.113281 C 198.089844 151.941406 198.007812 151.804688 197.84375 151.75 C 197.175781 151.542969 196.664062 151.09375 196.132812 150.679688 C 194.886719 149.703125 193.503906 149.03125 191.894531 148.894531 C 190.910156 148.8125 190.003906 149.09375 189.105469 149.449219 C 188.328125 149.753906 187.703125 149.5 187.304688 148.777344 C 187.023438 148.265625 186.878906 147.707031 186.875 147.132812 C 186.871094 145.769531 187.320312 144.585938 188.367188 143.65625 C 188.558594 143.488281 188.742188 143.3125 188.554688 143.042969 C 188.421875 142.851562 188.1875 142.902344 187.894531 143.152344 C 187.40625 143.570312 187.019531 144.066406 186.75 144.640625 C 186.066406 146.078125 185.945312 147.535156 186.644531 149.007812 C 186.9375 149.613281 187.398438 150.042969 188.070312 150.207031 C 188.65625 150.351562 189.199219 150.179688 189.726562 149.953125 C 190.960938 149.421875 192.191406 149.480469 193.433594 149.925781 C 194.65625 150.363281 195.640625 151.144531 196.667969 151.976562 C 196.515625 152.011719 196.410156 152.039062 196.304688 152.054688 Z M 180.386719 148.292969 C 181.226562 148.125 182.066406 147.925781 182.929688 147.972656 C 184.179688 148.039062 185.183594 148.542969 185.8125 149.652344 C 185.867188 149.75 185.925781 149.84375 186 149.925781 C 186.097656 150.035156 186.234375 150.054688 186.367188 150 C 186.503906 149.941406 186.558594 149.824219 186.554688 149.675781 C 186.554688 149.550781 186.488281 149.445312 186.429688 149.339844 C 185.710938 148.035156 184.554688 147.414062 183.09375 147.300781 C 182.171875 147.226562 181.273438 147.410156 180.378906 147.59375 C 179.105469 147.855469 177.828125 148.019531 176.535156 147.761719 C 176.0625 147.671875 175.605469 147.53125 175.148438 147.390625 C 174.703125 147.257812 174.480469 147.453125 174.527344 147.90625 C 174.539062 148.003906 174.5625 148.101562 174.589844 148.195312 C 174.9375 149.414062 175.699219 150.308594 176.800781 150.933594 C 176.886719 150.980469 176.980469 151.027344 177.078125 151.046875 C 177.25 151.089844 177.390625 151.027344 177.46875 150.871094 C 177.539062 150.726562 177.496094 150.582031 177.375 150.480469 C 177.269531 150.398438 177.148438 150.34375 177.035156 150.273438 C 176.222656 149.792969 175.640625 149.128906 175.316406 148.195312 C 177.859375 148.664062 178.425781 148.675781 180.386719 148.292969 Z M 196.203125 149.453125 C 196.019531 149.601562 195.917969 149.792969 196.09375 149.992188 C 196.269531 150.195312 196.472656 150.109375 196.652344 149.96875 C 197.347656 149.425781 197.890625 148.765625 198.269531 147.972656 C 198.335938 147.835938 198.398438 147.691406 198.433594 147.542969 C 198.519531 147.144531 198.261719 146.898438 197.855469 146.992188 C 197.75 147.015625 197.644531 147.054688 197.539062 147.089844 C 196.863281 147.324219 196.171875 147.351562 195.464844 147.253906 C 194.539062 147.125 193.621094 146.929688 192.6875 146.867188 C 191.078125 146.757812 189.585938 147.074219 188.285156 148.070312 C 188.09375 148.21875 187.957031 148.40625 188.144531 148.632812 C 188.320312 148.84375 188.523438 148.753906 188.707031 148.613281 C 189.007812 148.382812 189.328125 148.1875 189.671875 148.03125 C 190.980469 147.425781 192.347656 147.457031 193.730469 147.671875 C 194.980469 147.863281 196.226562 148.199219 197.5625 147.800781 C 197.230469 148.511719 196.742188 149.003906 196.203125 149.453125 Z M 173.03125 160.574219 C 173.589844 163.058594 174.722656 165.289062 176.144531 167.386719 C 176.289062 167.605469 176.433594 167.875 176.773438 167.714844 C 176.988281 167.609375 176.960938 167.355469 176.714844 166.996094 C 175.699219 165.515625 174.839844 163.953125 174.246094 162.257812 C 173.671875 160.617188 173.210938 158.953125 173.683594 157.1875 C 173.734375 156.996094 173.699219 156.800781 173.457031 156.746094 C 173.207031 156.6875 173.078125 156.839844 173.015625 157.046875 C 172.859375 157.554688 172.800781 158.082031 172.800781 158.679688 C 172.808594 159.273438 172.886719 159.929688 173.03125 160.574219 Z M 190.480469 167.664062 C 190.554688 168.339844 191.019531 168.804688 191.632812 168.824219 C 192.226562 168.839844 192.726562 168.421875 192.824219 167.746094 C 192.972656 166.738281 192.574219 165.867188 192.003906 165.066406 C 191.828125 164.820312 191.449219 164.839844 191.285156 165.09375 C 190.824219 165.792969 190.492188 166.546875 190.464844 167.332031 C 190.472656 167.488281 190.472656 167.578125 190.480469 167.664062 Z M 192.148438 167.59375 C 192.105469 167.941406 191.878906 168.15625 191.632812 168.140625 C 191.375 168.121094 191.191406 167.898438 191.171875 167.542969 C 191.132812 166.929688 191.347656 166.382812 191.675781 165.800781 C 191.972656 166.398438 192.230469 166.953125 192.148438 167.59375 Z M 186.246094 158.746094 C 186.4375 159.183594 186.75 159.460938 187.253906 159.496094 C 187.765625 159.527344 188.101562 159.285156 188.332031 158.859375 C 188.46875 158.601562 188.550781 158.324219 188.527344 158.035156 C 188.464844 157.199219 188.167969 156.445312 187.664062 155.777344 C 187.457031 155.5 187.074219 155.496094 186.898438 155.777344 C 186.464844 156.476562 186.136719 157.222656 186.125 158.066406 C 186.125 158.300781 186.148438 158.53125 186.246094 158.746094 Z M 187.832031 158.136719 C 187.832031 158.210938 187.816406 158.292969 187.789062 158.359375 C 187.695312 158.585938 187.605469 158.835938 187.292969 158.808594 C 186.980469 158.78125 186.875 158.550781 186.839844 158.28125 C 186.765625 157.644531 186.980469 157.078125 187.300781 156.488281 C 187.617188 157.027344 187.816406 157.554688 187.832031 158.136719 Z M 195.210938 161.730469 C 195.566406 162.382812 196.421875 162.5625 196.945312 162.082031 C 197.261719 161.789062 197.429688 161.414062 197.425781 160.992188 C 197.414062 160.101562 197.085938 159.3125 196.554688 158.605469 C 196.351562 158.335938 195.964844 158.351562 195.789062 158.636719 C 195.363281 159.34375 195.03125 160.085938 195.027344 160.929688 C 195.027344 161.210938 195.074219 161.480469 195.210938 161.730469 Z M 196.738281 160.925781 C 196.742188 160.980469 196.730469 161.035156 196.722656 161.089844 C 196.65625 161.4375 196.457031 161.660156 196.21875 161.65625 C 195.941406 161.652344 195.769531 161.433594 195.734375 161.050781 C 195.6875 160.546875 195.855469 159.925781 196.214844 159.347656 C 196.515625 159.859375 196.695312 160.371094 196.738281 160.925781 Z M 183.117188 165.109375 C 182.882812 164.796875 182.496094 164.835938 182.292969 165.183594 C 182.023438 165.640625 181.792969 166.117188 181.667969 166.636719 C 181.566406 167.070312 181.519531 167.507812 181.644531 167.945312 C 181.789062 168.429688 182.175781 168.773438 182.628906 168.816406 C 183.175781 168.867188 183.554688 168.648438 183.804688 168.132812 C 183.917969 167.902344 183.980469 167.65625 183.984375 167.398438 C 183.90625 166.554688 183.628906 165.785156 183.117188 165.109375 Z M 183.269531 167.519531 C 183.265625 167.636719 183.214844 167.753906 183.160156 167.863281 C 183.078125 168.023438 182.960938 168.15625 182.75 168.140625 C 182.519531 168.121094 182.390625 167.980469 182.324219 167.777344 C 182.230469 167.464844 182.261719 167.144531 182.335938 166.832031 C 182.414062 166.492188 182.542969 166.164062 182.757812 165.824219 C 183.066406 166.371094 183.292969 166.910156 183.269531 167.519531 Z M 177.816406 161.726562 C 178.003906 162.152344 178.308594 162.425781 178.792969 162.46875 C 179.300781 162.515625 179.648438 162.285156 179.882812 161.859375 C 180.03125 161.59375 180.117188 161.308594 180.09375 161.003906 C 180.023438 160.171875 179.730469 159.417969 179.226562 158.75 C 179.015625 158.472656 178.632812 158.476562 178.460938 158.757812 C 178.027344 159.460938 177.699219 160.207031 177.691406 161.050781 C 177.695312 161.28125 177.71875 161.511719 177.816406 161.726562 Z M 179.398438 161.03125 C 179.425781 161.425781 179.179688 161.777344 178.914062 161.789062 C 178.605469 161.804688 178.410156 161.546875 178.394531 161.078125 C 178.375 160.511719 178.570312 160.003906 178.871094 159.460938 C 179.171875 159.988281 179.363281 160.484375 179.398438 161.03125 Z M 186.25 174.757812 C 186.4375 175.179688 186.738281 175.460938 187.226562 175.503906 C 187.734375 175.546875 188.082031 175.320312 188.316406 174.894531 C 188.464844 174.628906 188.550781 174.34375 188.527344 174.039062 C 188.460938 173.207031 188.164062 172.453125 187.660156 171.785156 C 187.449219 171.507812 187.070312 171.507812 186.894531 171.789062 C 186.460938 172.492188 186.136719 173.234375 186.125 174.078125 C 186.128906 174.3125 186.152344 174.542969 186.25 174.757812 Z M 187.828125 174.171875 C 187.828125 174.265625 187.792969 174.367188 187.753906 174.457031 C 187.664062 174.664062 187.546875 174.859375 187.269531 174.816406 C 187.011719 174.777344 186.894531 174.59375 186.855469 174.363281 C 186.75 173.699219 186.964844 173.109375 187.300781 172.5 C 187.617188 173.042969 187.828125 173.574219 187.828125 174.171875 Z M 173.8125 155.195312 C 173.804688 155.390625 173.917969 155.507812 174.113281 155.515625 C 174.3125 155.527344 174.429688 155.417969 174.4375 155.21875 C 174.445312 155.023438 174.339844 154.914062 174.132812 154.898438 C 173.945312 154.90625 173.816406 154.996094 173.8125 155.195312 Z M 173.8125 155.195312 " fill-opacity="1" fill-rule="nonzero"/></g><g clip-path="url(#7cc4607b8c)"><path fill="#fec017" d="M 211.367188 176.460938 C 210.605469 176.277344 210.929688 175.117188 211.6875 175.296875 C 215.386719 176.183594 219.269531 176.574219 223.054688 176.101562 C 228.121094 175.46875 232.492188 172.898438 235.753906 169.015625 C 236.253906 168.417969 237.105469 169.277344 236.609375 169.871094 C 233.234375 173.890625 228.671875 176.550781 223.441406 177.257812 C 219.421875 177.800781 215.296875 177.402344 211.367188 176.460938 Z M 239.296875 165.816406 C 238.945312 166.511719 237.902344 165.898438 238.246094 165.207031 C 238.835938 164.03125 239.328125 162.808594 239.671875 161.539062 C 239.769531 161.179688 239.859375 160.816406 239.929688 160.449219 C 239.945312 160.367188 240.019531 159.886719 239.984375 160.148438 C 240.078125 159.386719 241.292969 159.382812 241.195312 160.148438 C 240.949219 162.125 240.179688 164.050781 239.296875 165.816406 Z M 241.378906 168.851562 C 239.75 173.320312 236.691406 176.621094 232.292969 178.664062 C 218.957031 184.855469 208.804688 176.585938 208.714844 176.5 C 208.394531 176.183594 207.976562 175.351562 208.042969 175.054688 C 208.085938 174.867188 208.460938 174.519531 208.816406 174.277344 C 214.726562 174.210938 220.089844 173.140625 224.753906 171.09375 C 228.535156 169.4375 231.867188 167.144531 234.65625 164.273438 C 238.660156 160.152344 240.367188 156.09375 240.84375 154.785156 L 241.535156 154.785156 C 242.675781 157.5625 243.335938 163.476562 241.375 168.851562 Z M 204.996094 168.753906 C 204.746094 168.371094 204.515625 167.472656 204.640625 167.195312 C 204.722656 167.023438 205.160156 166.761719 205.558594 166.597656 C 211.351562 167.757812 216.804688 167.855469 221.765625 166.894531 C 225.789062 166.117188 229.496094 164.644531 232.792969 162.515625 C 234.714844 161.273438 236.265625 159.960938 237.472656 158.765625 C 236.566406 160.195312 235.359375 161.816406 233.785156 163.433594 C 229.726562 167.609375 222.363281 172.574219 210.105469 173.039062 C 207.066406 171.179688 205.230469 169.085938 204.996094 168.753906 Z M 245.339844 143.214844 C 242.84375 144.527344 241.3125 146.898438 240.800781 149.625 C 240.605469 150.648438 240.535156 151.695312 240.5625 152.734375 C 240.570312 153.007812 240.613281 153.296875 240.640625 153.582031 L 239.964844 153.582031 L 239.855469 153.941406 C 239.558594 154.429688 237.144531 158.285156 232.078125 161.539062 C 227.105469 164.734375 218.480469 167.996094 205.628906 165.382812 L 205.464844 165.351562 L 205.308594 165.40625 C 205.078125 165.484375 203.894531 165.921875 203.539062 166.695312 C 203.15625 167.53125 203.644531 168.898438 203.980469 169.410156 C 204.171875 169.703125 205.65625 171.449219 208.203125 173.234375 C 207.855469 173.460938 207.023438 174.066406 206.863281 174.792969 C 206.660156 175.6875 207.425781 176.921875 207.859375 177.355469 C 208.203125 177.695312 211.027344 179.835938 215.296875 181.132812 C 217.164062 181.699219 219.519531 182.160156 222.230469 182.160156 C 225.355469 182.160156 228.949219 181.542969 232.804688 179.753906 C 237.507812 177.570312 240.773438 174.042969 242.515625 169.261719 C 244.800781 162.992188 243.707031 156.53125 242.480469 153.929688 L 242.316406 153.582031 L 241.847656 153.582031 C 241.824219 153.363281 241.789062 153.140625 241.785156 152.933594 C 241.746094 152.035156 241.777344 151.125 241.917969 150.234375 C 242.328125 147.6875 243.613281 145.484375 245.949219 144.257812 C 246.640625 143.894531 246.03125 142.851562 245.339844 143.214844 " fill-opacity="1" fill-rule="nonzero"/></g><g fill="#008037" fill-opacity="1"><g transform="translate(104.786252, 225.220083)"><g><path d="M 14.578125 -19.984375 C 17.390625 -19.984375 19.671875 -19.046875 21.421875 -17.171875 C 23.179688 -15.296875 24.0625 -12.851562 24.0625 -9.84375 C 24.0625 -6.863281 23.203125 -4.453125 21.484375 -2.609375 C 19.765625 -0.765625 17.488281 0.15625 14.65625 0.15625 C 11.476562 0.15625 9.140625 -1.039062 7.640625 -3.4375 L 7.640625 0 L 3.359375 0 L 3.359375 -27.671875 L 7.640625 -27.671875 L 7.640625 -16.40625 C 9.140625 -18.789062 11.453125 -19.984375 14.578125 -19.984375 Z M 9.34375 -5.3125 C 10.476562 -4.101562 11.925781 -3.5 13.6875 -3.5 C 15.457031 -3.5 16.90625 -4.101562 18.03125 -5.3125 C 19.164062 -6.519531 19.734375 -8.082031 19.734375 -10 C 19.734375 -11.863281 19.164062 -13.394531 18.03125 -14.59375 C 16.90625 -15.800781 15.457031 -16.40625 13.6875 -16.40625 C 11.925781 -16.40625 10.476562 -15.800781 9.34375 -14.59375 C 8.207031 -13.394531 7.640625 -11.863281 7.640625 -10 C 7.640625 -8.082031 8.207031 -6.519531 9.34375 -5.3125 Z M 9.34375 -5.3125 "/></g></g></g><g fill="#008037" fill-opacity="1"><g transform="translate(130.146901, 225.220083)"><g><path d="M 7.640625 0 L 3.359375 0 L 3.359375 -27.671875 L 7.640625 -27.671875 Z M 7.640625 0 "/></g></g></g><g fill="#008037" fill-opacity="1"><g transform="translate(141.148943, 225.220083)"><g><path d="M 11.34375 -19.984375 C 14.75 -19.984375 17.210938 -18.957031 18.734375 -16.90625 C 20.265625 -14.863281 20.894531 -11.988281 20.625 -8.28125 L 5.625 -8.28125 C 5.976562 -6.738281 6.703125 -5.523438 7.796875 -4.640625 C 8.890625 -3.753906 10.21875 -3.3125 11.78125 -3.3125 C 14.019531 -3.3125 15.882812 -4.082031 17.375 -5.625 L 19.65625 -3.203125 C 17.613281 -0.960938 14.878906 0.15625 11.453125 0.15625 C 8.390625 0.15625 5.929688 -0.769531 4.078125 -2.625 C 2.234375 -4.476562 1.3125 -6.894531 1.3125 -9.875 C 1.3125 -12.863281 2.242188 -15.289062 4.109375 -17.15625 C 5.972656 -19.019531 8.382812 -19.960938 11.34375 -19.984375 Z M 5.5625 -11.40625 L 16.890625 -11.40625 C 16.816406 -13 16.28125 -14.253906 15.28125 -15.171875 C 14.289062 -16.097656 12.988281 -16.5625 11.375 -16.5625 C 9.8125 -16.5625 8.515625 -16.097656 7.484375 -15.171875 C 6.453125 -14.253906 5.8125 -13 5.5625 -11.40625 Z M 5.5625 -11.40625 "/></g></g></g><g fill="#008037" fill-opacity="1"><g transform="translate(163.078438, 225.220083)"><g><path d="M 14.765625 -19.984375 C 17.078125 -19.984375 18.882812 -19.304688 20.1875 -17.953125 C 21.5 -16.597656 22.15625 -14.726562 22.15625 -12.34375 L 22.15625 0 L 17.859375 0 L 17.859375 -11.15625 C 17.859375 -12.644531 17.4375 -13.816406 16.59375 -14.671875 C 15.75 -15.535156 14.582031 -15.96875 13.09375 -15.96875 C 11.5 -15.9375 10.195312 -15.421875 9.1875 -14.421875 C 8.1875 -13.429688 7.609375 -12.144531 7.453125 -10.5625 L 7.453125 0 L 3.171875 0 L 3.171875 -19.84375 L 7.453125 -19.84375 L 7.453125 -16.03125 C 8.796875 -18.664062 11.234375 -19.984375 14.765625 -19.984375 Z M 14.765625 -19.984375 "/></g></g></g><g fill="#008037" fill-opacity="1"><g transform="translate(187.805068, 225.220083)"><g><path d="M 22.078125 -27.671875 L 22.078125 0 L 17.796875 0 L 17.796875 -3.390625 C 16.328125 -1.003906 14 0.1875 10.8125 0.1875 C 7.976562 0.1875 5.6875 -0.75 3.9375 -2.625 C 2.1875 -4.507812 1.3125 -6.96875 1.3125 -10 C 1.3125 -12.976562 2.179688 -15.394531 3.921875 -17.25 C 5.660156 -19.101562 7.929688 -20.03125 10.734375 -20.03125 C 13.921875 -20.03125 16.273438 -18.820312 17.796875 -16.40625 L 17.796875 -27.671875 Z M 7.328125 -5.203125 C 8.460938 -3.992188 9.921875 -3.390625 11.703125 -3.390625 C 13.492188 -3.390625 14.957031 -3.992188 16.09375 -5.203125 C 17.226562 -6.410156 17.796875 -7.957031 17.796875 -9.84375 C 17.796875 -11.757812 17.226562 -13.328125 16.09375 -14.546875 C 14.957031 -15.765625 13.492188 -16.375 11.703125 -16.375 C 9.921875 -16.375 8.460938 -15.765625 7.328125 -14.546875 C 6.191406 -13.328125 5.613281 -11.757812 5.59375 -9.84375 C 5.613281 -7.957031 6.191406 -6.410156 7.328125 -5.203125 Z M 7.328125 -5.203125 "/></g></g></g><g fill="#008037" fill-opacity="1"><g transform="translate(213.240306, 225.220083)"><g><path d="M 11.34375 -19.984375 C 14.75 -19.984375 17.210938 -18.957031 18.734375 -16.90625 C 20.265625 -14.863281 20.894531 -11.988281 20.625 -8.28125 L 5.625 -8.28125 C 5.976562 -6.738281 6.703125 -5.523438 7.796875 -4.640625 C 8.890625 -3.753906 10.21875 -3.3125 11.78125 -3.3125 C 14.019531 -3.3125 15.882812 -4.082031 17.375 -5.625 L 19.65625 -3.203125 C 17.613281 -0.960938 14.878906 0.15625 11.453125 0.15625 C 8.390625 0.15625 5.929688 -0.769531 4.078125 -2.625 C 2.234375 -4.476562 1.3125 -6.894531 1.3125 -9.875 C 1.3125 -12.863281 2.242188 -15.289062 4.109375 -17.15625 C 5.972656 -19.019531 8.382812 -19.960938 11.34375 -19.984375 Z M 5.5625 -11.40625 L 16.890625 -11.40625 C 16.816406 -13 16.28125 -14.253906 15.28125 -15.171875 C 14.289062 -16.097656 12.988281 -16.5625 11.375 -16.5625 C 9.8125 -16.5625 8.515625 -16.097656 7.484375 -15.171875 C 6.453125 -14.253906 5.8125 -13 5.5625 -11.40625 Z M 5.5625 -11.40625 "/></g></g></g><g fill="#008037" fill-opacity="1"><g transform="translate(235.169801, 225.220083)"><g><path d="M 22.078125 -27.671875 L 22.078125 0 L 17.796875 0 L 17.796875 -3.390625 C 16.328125 -1.003906 14 0.1875 10.8125 0.1875 C 7.976562 0.1875 5.6875 -0.75 3.9375 -2.625 C 2.1875 -4.507812 1.3125 -6.96875 1.3125 -10 C 1.3125 -12.976562 2.179688 -15.394531 3.921875 -17.25 C 5.660156 -19.101562 7.929688 -20.03125 10.734375 -20.03125 C 13.921875 -20.03125 16.273438 -18.820312 17.796875 -16.40625 L 17.796875 -27.671875 Z M 7.328125 -5.203125 C 8.460938 -3.992188 9.921875 -3.390625 11.703125 -3.390625 C 13.492188 -3.390625 14.957031 -3.992188 16.09375 -5.203125 C 17.226562 -6.410156 17.796875 -7.957031 17.796875 -9.84375 C 17.796875 -11.757812 17.226562 -13.328125 16.09375 -14.546875 C 14.957031 -15.765625 13.492188 -16.375 11.703125 -16.375 C 9.921875 -16.375 8.460938 -15.765625 7.328125 -14.546875 C 6.191406 -13.328125 5.613281 -11.757812 5.59375 -9.84375 C 5.613281 -7.957031 6.191406 -6.410156 7.328125 -5.203125 Z M 7.328125 -5.203125 "/></g></g></g><g fill="#008037" fill-opacity="1"><g transform="translate(260.598386, 225.220083)"><g/></g></g></svg>