<svg xmlns="http://www.w3.org/2000/svg" xmlns:xlink="http://www.w3.org/1999/xlink" width="500" zoomAndPan="magnify"  viewBox="0 0 375 374.999991" height="500" preserveAspectRatio="xMidYMid meet" version="1.0"><defs><clipPath id="5ed5dd45ad"><path d="M 76.410156 89.046875 L 298.410156 89.046875 L 298.410156 286.296875 L 76.410156 286.296875 Z M 76.410156 89.046875 " clip-rule="nonzero"/></clipPath></defs><g clip-path="url(#5ed5dd45ad)"><path fill="black" d="M 187.410156 286.25 L 185.058594 284.648438 C 184.792969 284.46875 157.753906 265.953125 131.113281 240.355469 C 115.394531 225.222656 102.828125 210.621094 93.773438 196.910156 C 82.273438 179.371094 76.410156 163.125 76.410156 148.699219 C 76.410156 115.847656 103.097656 89.09375 135.863281 89.09375 C 148.027344 89.09375 159.792969 92.835938 169.828125 99.957031 C 177.109375 105.121094 183.058594 111.707031 187.410156 119.277344 C 191.761719 111.664062 197.710938 105.078125 204.992188 99.957031 C 215.027344 92.835938 226.792969 89.09375 238.960938 89.09375 C 271.726562 89.09375 298.410156 115.847656 298.410156 148.699219 L 298.410156 148.746094 C 298.277344 163.078125 292.375 179.191406 280.828125 196.6875 C 271.773438 210.398438 259.25 225 243.53125 240.179688 C 216.9375 265.863281 190.03125 284.46875 189.765625 284.648438 Z M 135.863281 97.417969 C 107.667969 97.417969 84.714844 120.433594 84.714844 148.699219 C 84.714844 161.476562 90.085938 176.121094 100.699219 192.234375 C 109.355469 205.410156 121.523438 219.566406 136.796875 234.257812 C 158.417969 255.046875 180.351562 271.117188 187.410156 276.101562 C 194.472656 271.070312 216.273438 254.910156 237.851562 234.078125 C 253.078125 219.34375 265.199219 205.234375 273.902344 192.058594 C 284.515625 175.941406 289.976562 161.386719 290.0625 148.699219 C 290.0625 120.433594 267.109375 97.464844 238.914062 97.464844 C 218.003906 97.464844 198.867188 110.730469 191.230469 130.492188 L 187.367188 140.554688 L 183.546875 130.492188 C 175.910156 110.730469 156.777344 97.417969 135.863281 97.417969 Z M 135.863281 97.417969 " fill-opacity="1" fill-rule="nonzero"/></g></svg>