<svg xmlns="http://www.w3.org/2000/svg" xmlns:xlink="http://www.w3.org/1999/xlink" width="500" zoomAndPan="magnify" viewBox="0 0 375 374.999991" height="500" preserveAspectRatio="xMidYMid meet" version="1.0"><defs><clipPath id="71a45cf6be"><path d="M 90.875 90.875 L 284 90.875 L 284 284 L 90.875 284 Z M 90.875 90.875 " clip-rule="nonzero"/></clipPath></defs><g clip-path="url(#71a45cf6be)"><path fill="#000000" d="M 215.25 232.371094 L 262.644531 279.75 C 267.335938 284.441406 274.957031 284.441406 279.648438 279.746094 C 284.339844 275.054688 284.335938 267.433594 279.644531 262.742188 L 232.285156 215.394531 C 241.8125 202.4375 247.441406 186.433594 247.441406 169.125 C 247.441406 125.9375 212.382812 90.875 169.195312 90.875 C 126.011719 90.875 90.949219 125.9375 90.949219 169.125 C 90.949219 212.308594 126.011719 247.371094 169.195312 247.371094 C 186.40625 247.371094 202.324219 241.804688 215.25 232.371094 Z M 169.195312 114.925781 C 199.109375 114.925781 223.394531 139.210938 223.394531 169.125 C 223.394531 199.035156 199.109375 223.324219 169.195312 223.324219 C 139.285156 223.324219 115 199.035156 115 169.125 C 115 139.210938 139.285156 114.925781 169.195312 114.925781 Z M 169.195312 114.925781 " fill-opacity="1" fill-rule="evenodd"/></g></svg>