<svg xmlns="http://www.w3.org/2000/svg" xmlns:xlink="http://www.w3.org/1999/xlink" width="500" zoomAndPan="magnify" viewBox="0 0 375 374.999991" height="500" preserveAspectRatio="xMidYMid meet" version="1.0"><defs><g/><clipPath id="671f3c96f1"><path d="M 29.890625 156.195312 L 81 156.195312 L 81 218.695312 L 29.890625 218.695312 Z M 29.890625 156.195312 " clip-rule="nonzero"/></clipPath></defs><g clip-path="url(#671f3c96f1)"><path fill="#3751ff" d="M 80.835938 169.855469 C 80.835938 162.230469 74.644531 156.050781 67.007812 156.050781 L 43.714844 156.050781 C 36.078125 156.050781 29.886719 162.230469 29.886719 169.855469 L 29.886719 204.742188 C 29.886719 212.367188 36.078125 218.546875 43.714844 218.546875 L 67.007812 218.546875 C 74.644531 218.546875 80.835938 212.367188 80.835938 204.742188 Z M 76.46875 169.855469 C 76.46875 164.640625 72.234375 160.410156 67.007812 160.410156 L 43.714844 160.410156 C 38.488281 160.410156 34.253906 164.640625 34.253906 169.855469 L 34.253906 204.742188 C 34.253906 209.957031 38.488281 214.1875 43.714844 214.1875 L 67.007812 214.1875 C 72.234375 214.1875 76.46875 209.957031 76.46875 204.742188 Z M 76.46875 169.855469 " fill-opacity="1" fill-rule="evenodd"/></g><path fill="#3751ff" d="M 41.53125 178.578125 C 41.53125 177.375 42.511719 176.398438 43.714844 176.398438 L 67.007812 176.398438 C 68.214844 176.398438 69.191406 177.375 69.191406 178.578125 C 69.191406 179.78125 68.214844 180.757812 67.007812 180.757812 L 43.714844 180.757812 C 42.511719 180.757812 41.53125 179.78125 41.53125 178.578125 Z M 41.53125 178.578125 " fill-opacity="1" fill-rule="evenodd"/><path fill="#3751ff" d="M 41.53125 187.296875 C 41.53125 186.09375 42.511719 185.117188 43.714844 185.117188 L 67.007812 185.117188 C 68.214844 185.117188 69.191406 186.09375 69.191406 187.296875 C 69.191406 188.503906 68.214844 189.480469 67.007812 189.480469 L 43.714844 189.480469 C 42.511719 189.480469 41.53125 188.503906 41.53125 187.296875 Z M 41.53125 187.296875 " fill-opacity="1" fill-rule="evenodd"/><path fill="#3751ff" d="M 41.53125 196.019531 C 41.53125 194.816406 42.511719 193.839844 43.714844 193.839844 L 53.90625 193.839844 C 55.113281 193.839844 56.089844 194.816406 56.089844 196.019531 C 56.089844 197.222656 55.113281 198.199219 53.90625 198.199219 L 43.714844 198.199219 C 42.511719 198.199219 41.53125 197.222656 41.53125 196.019531 Z M 41.53125 196.019531 " fill-opacity="1" fill-rule="evenodd"/><g fill="#000000" fill-opacity="1"><g transform="translate(82.505862, 203.408267)"><g><path d="M 15.800781 0.613281 C 23.019531 0.613281 27.6875 -2.925781 27.6875 -8.679688 C 27.6875 -13.539062 24.433594 -16.460938 15.992188 -18.539062 C 9.574219 -20.09375 7.453125 -21.792969 7.453125 -24.527344 C 7.453125 -27.6875 10.28125 -29.667969 15 -29.667969 C 19.859375 -29.667969 22.878906 -27.21875 22.972656 -23.253906 L 27.074219 -23.253906 C 27.027344 -29.667969 22.40625 -33.632812 15 -33.632812 C 7.78125 -33.632812 3.207031 -30.09375 3.207031 -24.527344 C 3.207031 -19.433594 6.839844 -16.605469 14.953125 -14.667969 C 20.894531 -13.253906 23.394531 -11.605469 23.394531 -8.539062 C 23.394531 -5.28125 20.472656 -3.347656 15.800781 -3.347656 C 10.660156 -3.347656 7.074219 -5.894531 6.980469 -10.140625 L 2.832031 -10.140625 C 2.878906 -3.679688 7.925781 0.613281 15.800781 0.613281 Z M 15.800781 0.613281 "/></g></g></g><g fill="#000000" fill-opacity="1"><g transform="translate(110.241187, 203.408267)"><g><path d="M 4.386719 0 L 8.347656 0 L 8.347656 -12.5 C 8.347656 -17.878906 11.605469 -21.320312 16.226562 -21.320312 C 20.472656 -21.320312 23.113281 -18.300781 23.113281 -13.394531 L 23.113281 0 L 27.074219 0 L 27.074219 -13.773438 C 27.074219 -20.753906 23.207031 -25.09375 16.746094 -25.09375 C 13.585938 -25.09375 10.472656 -23.914062 8.347656 -21.273438 L 8.347656 -34.90625 L 4.386719 -34.90625 Z M 4.386719 0 "/></g></g></g><g fill="#000000" fill-opacity="1"><g transform="translate(138.448201, 203.408267)"><g><path d="M 12.40625 0.378906 C 16.367188 0.378906 19.480469 -0.894531 21.699219 -3.394531 L 22.121094 0 L 25.378906 0 L 25.378906 -15.566406 C 25.378906 -21.226562 21.085938 -25.09375 14.667969 -25.09375 C 9.339844 -25.09375 5.332031 -22.21875 4.246094 -17.5 L 8.253906 -17.5 C 9.054688 -19.90625 11.554688 -21.414062 14.71875 -21.414062 C 18.867188 -21.414062 21.414062 -19.105469 21.414062 -15.28125 L 21.414062 -14.386719 L 11.414062 -14.386719 C 6.320312 -14.386719 2.972656 -11.507812 2.972656 -7.074219 C 2.972656 -2.453125 6.507812 0.378906 12.40625 0.378906 Z M 6.933594 -7.121094 C 6.933594 -9.433594 8.820312 -10.894531 11.554688 -10.894531 L 21.460938 -10.894531 C 21.320312 -6.367188 17.640625 -3.160156 12.546875 -3.160156 C 9.105469 -3.160156 6.933594 -4.71875 6.933594 -7.121094 Z M 6.933594 -7.121094 "/></g></g></g><g fill="#000000" fill-opacity="1"><g transform="translate(164.909953, 203.408267)"><g><path d="M 4.386719 0 L 8.347656 0 L 8.347656 -11.367188 C 8.347656 -18.347656 11.839844 -20.800781 16.273438 -20.800781 L 18.679688 -20.800781 L 18.679688 -24.480469 L 16.460938 -24.480469 C 12.3125 -24.480469 9.859375 -23.160156 8.113281 -20.234375 L 7.640625 -24.480469 L 4.386719 -24.480469 Z M 4.386719 0 "/></g></g></g><g fill="#000000" fill-opacity="1"><g transform="translate(182.692555, 203.408267)"><g><path d="M 15 0.613281 C 20.519531 0.613281 25.046875 -2.359375 27.027344 -7.121094 L 22.546875 -7.121094 C 21.039062 -4.527344 18.253906 -3.113281 15.046875 -3.113281 C 10.378906 -3.113281 7.074219 -6.039062 6.460938 -10.660156 L 27.640625 -10.660156 C 27.925781 -19.199219 22.878906 -25.09375 15.046875 -25.09375 C 7.640625 -25.09375 2.453125 -19.8125 2.453125 -12.265625 C 2.453125 -4.667969 7.59375 0.613281 15 0.613281 Z M 6.507812 -14.152344 C 7.21875 -18.492188 10.519531 -21.367188 15.046875 -21.367188 C 19.527344 -21.367188 22.832031 -18.632812 23.679688 -14.152344 Z M 6.507812 -14.152344 "/></g></g></g><g fill="#000000" fill-opacity="1"><g transform="translate(209.909014, 203.408267)"><g><path d="M 4.8125 0 L 18.207031 0 C 24.859375 0 29.007812 -3.539062 29.007812 -9.246094 C 29.007812 -12.972656 27.167969 -15.753906 23.773438 -17.121094 C 26.460938 -18.492188 28.066406 -21.039062 28.066406 -24.246094 C 28.066406 -29.574219 23.914062 -33.019531 17.59375 -33.019531 L 4.8125 -33.019531 Z M 8.960938 -3.867188 L 8.960938 -14.953125 L 18.066406 -14.953125 C 22.359375 -14.953125 24.765625 -12.925781 24.765625 -9.433594 C 24.765625 -5.894531 22.359375 -3.867188 18.113281 -3.867188 Z M 8.960938 -18.726562 L 8.960938 -29.152344 L 17.5 -29.152344 C 21.507812 -29.152344 23.820312 -27.265625 23.820312 -23.914062 C 23.820312 -20.613281 21.554688 -18.726562 17.5 -18.726562 Z M 8.960938 -18.726562 "/></g></g></g><g fill="#000000" fill-opacity="1"><g transform="translate(238.776398, 203.408267)"><g><path d="M 15.425781 0.613281 C 23.019531 0.613281 28.394531 -4.765625 28.394531 -12.265625 C 28.394531 -19.765625 23.019531 -25.09375 15.425781 -25.09375 C 7.832031 -25.09375 2.453125 -19.765625 2.453125 -12.265625 C 2.453125 -4.765625 7.832031 0.613281 15.425781 0.613281 Z M 6.414062 -12.265625 C 6.414062 -17.59375 10.140625 -21.320312 15.425781 -21.320312 C 20.707031 -21.320312 24.433594 -17.59375 24.433594 -12.265625 C 24.433594 -6.886719 20.707031 -3.207031 15.425781 -3.207031 C 10.140625 -3.207031 6.414062 -6.886719 6.414062 -12.265625 Z M 6.414062 -12.265625 "/></g></g></g><g fill="#000000" fill-opacity="1"><g transform="translate(266.841898, 203.408267)"><g><path d="M 12.40625 0.378906 C 16.367188 0.378906 19.480469 -0.894531 21.699219 -3.394531 L 22.121094 0 L 25.378906 0 L 25.378906 -15.566406 C 25.378906 -21.226562 21.085938 -25.09375 14.667969 -25.09375 C 9.339844 -25.09375 5.332031 -22.21875 4.246094 -17.5 L 8.253906 -17.5 C 9.054688 -19.90625 11.554688 -21.414062 14.71875 -21.414062 C 18.867188 -21.414062 21.414062 -19.105469 21.414062 -15.28125 L 21.414062 -14.386719 L 11.414062 -14.386719 C 6.320312 -14.386719 2.972656 -11.507812 2.972656 -7.074219 C 2.972656 -2.453125 6.507812 0.378906 12.40625 0.378906 Z M 6.933594 -7.121094 C 6.933594 -9.433594 8.820312 -10.894531 11.554688 -10.894531 L 21.460938 -10.894531 C 21.320312 -6.367188 17.640625 -3.160156 12.546875 -3.160156 C 9.105469 -3.160156 6.933594 -4.71875 6.933594 -7.121094 Z M 6.933594 -7.121094 "/></g></g></g><g fill="#000000" fill-opacity="1"><g transform="translate(293.30366, 203.408267)"><g><path d="M 4.386719 0 L 8.347656 0 L 8.347656 -11.367188 C 8.347656 -18.347656 11.839844 -20.800781 16.273438 -20.800781 L 18.679688 -20.800781 L 18.679688 -24.480469 L 16.460938 -24.480469 C 12.3125 -24.480469 9.859375 -23.160156 8.113281 -20.234375 L 7.640625 -24.480469 L 4.386719 -24.480469 Z M 4.386719 0 "/></g></g></g><g fill="#000000" fill-opacity="1"><g transform="translate(311.086253, 203.408267)"><g><path d="M 14.953125 0.613281 C 18.914062 0.613281 22.3125 -1.039062 24.527344 -3.773438 L 25 0 L 28.253906 0 L 28.253906 -34.90625 L 24.292969 -34.90625 L 24.292969 -21.039062 C 22.074219 -23.585938 18.773438 -25.09375 14.953125 -25.09375 C 7.6875 -25.09375 2.453125 -19.667969 2.453125 -12.265625 C 2.453125 -4.8125 7.6875 0.613281 14.953125 0.613281 Z M 6.414062 -12.265625 C 6.414062 -17.546875 10.140625 -21.320312 15.425781 -21.320312 C 20.753906 -21.320312 24.433594 -17.546875 24.433594 -12.265625 C 24.433594 -6.933594 20.753906 -3.207031 15.425781 -3.207031 C 10.140625 -3.207031 6.414062 -6.933594 6.414062 -12.265625 Z M 6.414062 -12.265625 "/></g></g></g></svg>